<svg width="101" height="39" viewBox="0 0 101 39" fill="none" xmlns="http://www.w3.org/2000/svg">
<path d="M94.4156 28.9253L98.4644 13.7136L98.4762 13.6692C98.7986 12.4583 99.057 11.4875 99.1972 10.6933C99.3408 9.8808 99.3819 9.14893 99.1958 8.43687C98.8904 7.26843 98.1725 6.25 97.1746 5.56977C96.5664 5.15523 95.8633 4.94807 95.0498 4.81024C94.2546 4.67553 93.2535 4.59272 92.0046 4.48942L91.9588 4.48563L63.7932 2.15565L63.761 2.15299C58.9743 1.75701 56.5436 1.55594 54.1074 1.4724C51.8504 1.39501 49.5915 1.39333 47.3344 1.46739C44.8981 1.54731 42.4671 1.74479 37.6798 2.13368L37.6476 2.1363L8.60169 4.4958L8.5558 4.49953C7.30513 4.60112 6.30256 4.68255 5.5063 4.81627C4.69165 4.95308 3.98745 5.15949 3.37831 5.57379C2.37884 6.25357 1.65945 7.2724 1.35329 8.44172C1.1667 9.15437 1.20781 9.88705 1.35148 10.7005C1.4919 11.4956 1.75063 12.4676 2.07338 13.6802L2.08523 13.7247L6.12891 28.917C6.14556 28.9796 6.16196 29.0413 6.17812 29.1022C6.53989 30.4638 6.78948 31.4032 7.32416 32.1491C7.81505 32.8339 8.47102 33.3835 9.23115 33.7469C10.0591 34.1428 11.0277 34.2241 12.4316 34.3419C12.4944 34.3471 12.558 34.3525 12.6225 34.3579L37.1255 36.4252L37.159 36.428C42.1372 36.848 44.6652 37.0613 47.1989 37.1474C49.5463 37.2272 51.8958 37.2251 54.243 37.1411C56.7766 37.0504 59.3042 36.8326 64.2817 36.4036L64.3151 36.4007L87.9352 34.3651C87.9995 34.3595 88.063 34.3541 88.1256 34.3487C89.5269 34.2286 90.4937 34.1457 91.3199 33.7494C92.0784 33.3855 92.7329 32.8362 93.2227 32.1521C93.7562 31.4071 94.0053 30.4693 94.3665 29.1101C94.3826 29.0493 94.399 28.9878 94.4156 28.9253Z" fill="#D87D93" stroke="black" stroke-width="2"/>
<mask id="mask0_77_2061" style="mask-type:alpha" maskUnits="userSpaceOnUse" x="1" y="1" width="97" height="35">
<path d="M1.95857 12.3899C1.29298 9.88923 0.960193 8.63892 1.22766 7.61737C1.47259 6.68191 2.0481 5.86685 2.84768 5.32303C3.72084 4.72916 5.01044 4.6244 7.58964 4.41488L36.6356 2.05538C41.4532 1.66402 43.862 1.46835 46.2741 1.38921C48.5089 1.31589 50.7455 1.31755 52.9801 1.39418C55.3922 1.47688 57.8007 1.67613 62.6177 2.07461L90.7833 4.40459C93.3588 4.61764 94.6465 4.72417 95.5183 5.31842C96.3166 5.86261 96.891 6.67735 97.1353 7.6121C97.4021 8.63286 97.0697 9.88151 96.405 12.3788L92.3562 27.5905C91.9467 29.1291 91.7419 29.8984 91.3166 30.4923C90.9248 31.0395 90.4012 31.479 89.7944 31.7701C89.1357 32.0861 88.3426 32.1544 86.7563 32.2911L63.1362 34.3268C58.1272 34.7585 55.6227 34.9743 53.1142 35.0641C50.7902 35.1473 48.464 35.1494 46.1399 35.0704C43.6312 34.9851 41.1263 34.7738 36.1165 34.3511L11.6136 32.2838C10.0242 32.1497 9.22954 32.0827 8.56948 31.7671C7.96137 31.4764 7.4366 31.0367 7.04389 30.4888C6.61763 29.8942 6.4125 29.1235 6.00225 27.5822L1.95857 12.3899Z" fill="#7DD88B"/>
</mask>
<g mask="url(#mask0_77_2061)">
<path d="M7.78683 32.0422L-3.8252 6.38928L51.3661 -4.38916L56.5573 2.29368L8.37995 8.94043C7.34968 9.08257 6.60029 9.9906 6.65617 11.0291L7.78683 32.0422Z" fill="white" style="mix-blend-mode:soft-light"/>
</g>
<path d="M93.306 33.5508L100 8.00586L88.2676 27.7993C87.576 28.9661 86.3402 29.7029 84.9849 29.7566L10.929 32.6885L8.74316 33.3352L53.1421 36.9999L93.306 33.5508Z" fill="black" style="mix-blend-mode:soft-light"/>
</svg>
