<svg width="90" height="90" viewBox="0 0 90 90" fill="none" xmlns="http://www.w3.org/2000/svg">
<path d="M45 90C69.8528 90 90 69.8528 90 45C90 20.1472 69.8528 0 45 0C20.1472 0 0 20.1472 0 45C0 69.8528 20.1472 90 45 90Z" fill="#CCE9E3"/>
<path d="M38 44H52L54.5 52H35.5L38 44Z" fill="#737373"/>
<path d="M37.6667 43.6667V45.9044C37.6668 46.7802 37.4771 47.6474 37.1084 48.4566C36.7397 49.2657 36.1993 50.0008 35.518 50.62L34 52H56L54.482 50.62C53.8007 50.0008 53.2603 49.2657 52.8916 48.4566C52.5229 47.6474 52.3332 46.7802 52.3333 45.9044V43.6667M67 17V38.6667C67 39.9927 66.4205 41.2645 65.3891 42.2022C64.3576 43.1399 62.9587 43.6667 61.5 43.6667H28.5C27.0413 43.6667 25.6424 43.1399 24.6109 42.2022C23.5795 41.2645 23 39.9927 23 38.6667V17M67 17C67 15.6739 66.4205 14.4021 65.3891 13.4645C64.3576 12.5268 62.9587 12 61.5 12H28.5C27.0413 12 25.6424 12.5268 24.6109 13.4645C23.5795 14.4021 23 15.6739 23 17M67 17V32C67 33.3261 66.4205 34.5979 65.3891 35.5355C64.3576 36.4732 62.9587 37 61.5 37H28.5C27.0413 37 25.6424 36.4732 24.6109 35.5355C23.5795 34.5979 23 33.3261 23 32V17" stroke="black" stroke-width="2" stroke-linecap="round" stroke-linejoin="round"/>
<rect x="24" y="13" width="42" height="30" rx="4" fill="#FFFDFA"/>
<rect x="27" y="16" width="36" height="23" rx="3" fill="#BEBBBB" stroke="black" stroke-width="2"/>
<rect x="16" y="57" width="58" height="13" rx="3" fill="white" stroke="black" stroke-width="2"/>
<rect x="23" y="63" width="44" height="4" rx="2" fill="#737373" stroke="black" stroke-width="2"/>
</svg>
