<svg width="90" height="90" viewBox="0 0 90 90" fill="none" xmlns="http://www.w3.org/2000/svg">
<path d="M45 89.5204C69.8528 89.5204 90 69.4806 90 44.7602C90 20.0398 69.8528 0 45 0C20.1472 0 0 20.0398 0 44.7602C0 69.4806 20.1472 89.5204 45 89.5204Z" fill="#EBE9BB"/>
<path d="M57.6429 20.5369C57.6429 27.5194 51.9825 33.1798 45 33.1798C38.0176 33.1798 32.3572 27.5194 32.3572 20.5369C32.3572 13.5544 38.0176 7.89404 45 7.89404C51.9825 7.89404 57.6429 13.5544 57.6429 20.5369Z" fill="white" style="mix-blend-mode:soft-light"/>
<path d="M57.6429 20.5369C57.6429 27.5194 51.9825 33.1798 45 33.1798C38.0176 33.1798 32.3572 27.5194 32.3572 20.5369C32.3572 13.5544 38.0176 7.89404 45 7.89404C51.9825 7.89404 57.6429 13.5544 57.6429 20.5369Z" stroke="black" stroke-width="3"/>
<path d="M16.5182 53.349L16.5183 53.349C21.7397 45.5625 32.4504 40.0713 45.0001 40.0713C53.9289 40.0713 61.9577 42.8569 67.7231 47.2917C73.4868 51.7253 76.9287 57.7465 76.9287 64.2856C76.9287 70.8247 73.4868 76.8458 67.7231 81.2794C61.9577 85.7143 53.9289 88.4999 45.0001 88.4999C36.0713 88.4999 28.0425 85.7143 22.2771 81.2794C16.5134 76.8458 13.0715 70.8247 13.0715 64.2856C13.0715 60.3688 14.3023 56.6533 16.5182 53.349Z" fill="white" style="mix-blend-mode:soft-light"/>
<path d="M16.5182 53.349L16.5183 53.349C21.7397 45.5625 32.4504 40.0713 45.0001 40.0713C53.9289 40.0713 61.9577 42.8569 67.7231 47.2917C73.4868 51.7253 76.9287 57.7465 76.9287 64.2856C76.9287 70.8247 73.4868 76.8458 67.7231 81.2794C61.9577 85.7143 53.9289 88.4999 45.0001 88.4999C36.0713 88.4999 28.0425 85.7143 22.2771 81.2794C16.5134 76.8458 13.0715 70.8247 13.0715 64.2856C13.0715 60.3688 14.3023 56.6533 16.5182 53.349Z" stroke="black" stroke-width="3"/>
</svg>
