<svg width="24" height="26" viewBox="0 0 24 26" fill="none" xmlns="http://www.w3.org/2000/svg">
<path d="M20.3729 21.375C18.1978 23.02 15.4638 24 12.4961 24L12.4975 25C12.497 25 12.4965 25 12.4961 25C9.4331 25.0042 6.45321 24.0142 4.02843 22.1824C3.5878 21.8562 3.26185 21.3972 3.10445 20.8697C2.94624 20.3396 2.96834 19.7735 3.16683 19.2573L4.1002 19.6162L3.16989 19.2495C3.89728 17.4044 5.18073 15.8219 6.8462 14.7077C8.51136 13.5936 10.4816 12.9987 12.4971 12.9983C14.5125 12.9978 16.4831 13.5918 18.1488 14.7051C19.8147 15.8186 21.0989 17.4005 21.8272 19.2453C22.2561 20.3276 21.8594 21.5067 20.9751 22.1733C20.975 22.1734 20.9748 22.1735 20.9746 22.1737L20.3729 21.375ZM20.3729 21.375C20.9253 20.9587 21.1489 20.2462 20.8971 19.6125L20.3729 21.375ZM12.4961 12.5C13.7748 12.5 15.0065 12.006 15.9188 11.1184C16.832 10.2298 17.3503 9.01876 17.3503 7.75C17.3503 6.48123 16.832 5.27017 15.9188 4.38161C15.0065 3.49397 13.7748 3 12.4961 3C11.2173 3 9.98566 3.49397 9.07334 4.38161C8.16008 5.27017 7.6418 6.48123 7.6418 7.75C7.6418 9.01876 8.16008 10.2298 9.07334 11.1184C9.98566 12.006 11.2173 12.5 12.4961 12.5Z" fill="black" stroke="black" stroke-width="2"/>
<path d="M18.3729 19.375C16.1978 21.02 13.4638 22 10.4961 22L10.4975 23C10.497 23 10.4965 23 10.4961 23C7.4331 23.0042 4.45321 22.0142 2.02843 20.1824C1.5878 19.8562 1.26185 19.3972 1.10445 18.8697C0.946237 18.3396 0.968336 17.7735 1.16683 17.2573L2.1002 17.6162L1.16989 17.2495C1.89728 15.4044 3.18073 13.8219 4.8462 12.7077C6.51136 11.5936 8.48162 10.9987 10.4971 10.9983C12.5125 10.9978 14.4831 11.5918 16.1488 12.7051C17.8147 13.8186 19.0989 15.4005 19.8272 17.2453C20.2561 18.3276 19.8594 19.5067 18.9751 20.1733C18.975 20.1734 18.9748 20.1735 18.9746 20.1737L18.3729 19.375ZM18.3729 19.375C18.9253 18.9587 19.1489 18.2462 18.8971 17.6125L18.3729 19.375ZM10.4961 10.5C11.7748 10.5 13.0065 10.006 13.9188 9.11838C14.832 8.22983 15.3503 7.01876 15.3503 5.75C15.3503 4.48123 14.832 3.27017 13.9188 2.38161C13.0065 1.49397 11.7748 1 10.4961 1C9.21734 1 7.98566 1.49397 7.07334 2.38161C6.16008 3.27017 5.6418 4.48123 5.6418 5.75C5.6418 7.01876 6.16008 8.22983 7.07334 9.11838C7.98566 10.006 9.21734 10.5 10.4961 10.5Z" fill="white" stroke="black" stroke-width="2"/>
</svg>
